# xmcd
#
# Track frame offsets: 
#        150
#        14748
#        27398
#        51523
#        68419
#        80223
#        101501
#        118011
#        131641
#        152445
#        176217
#        196790
#        216242
#        228937
#        246955
#        262995
#
# Disc length: 3727 seconds
#
# Revision: 0
# Processed by: cddbd v1.5.2PL0 Copyright (c) Steve Scherf et al.
# Submitted via: ExactAudioCopy v1.0b1
#
DISCID=e10e8d10
DTITLE=Shiesty Khrist and Devine Carama - OMG
DYEAR=2011
DGENRE=Hip-Hop
TTITLE0=Strive For Perfection
TTITLE1=Touch Ya
TTITLE2=Precious Stones (feat. Natti and Deacon The Villain)
TTITLE3=Porta Potty
TTITLE4=Glitter (feat. Marcus Wilkerson)
TTITLE5=Rain (feat. Nemo and Emanuel Webb)
TTITLE6=Resurrection (feat. Canibus and Deacon The Villain)
TTITLE7=Gettin Better
TTITLE8=Good God
TTITLE9=Back With the Future
TTITLE10=Take Over the World
TTITLE11=Rocket
TTITLE12=Fire in the Hole
TTITLE13=Blood on the Wall
TTITLE14=Statue
TTITLE15=Good-Bye
EXTD=
EXTT0=
EXTT1=
EXTT2=
EXTT3=
EXTT4=
EXTT5=
EXTT6=
EXTT7=
EXTT8=
EXTT9=
EXTT10=
EXTT11=
EXTT12=
EXTT13=
EXTT14=
EXTT15=
PLAYORDER=
